<svg width="396" height="80" viewBox="0 0 396 80" fill="none" xmlns="http://www.w3.org/2000/svg">
<rect x="10" y="30" width="373" height="19" rx="9.5" fill="#928FCB"/>
<rect x="10" y="30" width="23" height="19" rx="9.5" fill="#D7B094"/>
<circle cx="24" cy="39" r="14" fill="#986846"/>
<circle cx="111" cy="40" r="14" fill="#BEB8DC"/>
<path d="M107.034 45V43.4773L111.074 39.517C111.46 39.1269 111.782 38.7803 112.04 38.4773C112.297 38.1742 112.491 37.8807 112.619 37.5966C112.748 37.3125 112.812 37.0095 112.812 36.6875C112.812 36.3201 112.729 36.0057 112.562 35.7443C112.396 35.4792 112.167 35.2746 111.875 35.1307C111.583 34.9867 111.252 34.9148 110.881 34.9148C110.498 34.9148 110.163 34.9943 109.875 35.1534C109.587 35.3087 109.364 35.5303 109.205 35.8182C109.049 36.1061 108.972 36.4489 108.972 36.8466H106.966C106.966 36.108 107.134 35.4659 107.472 34.9205C107.809 34.375 108.273 33.9527 108.864 33.6534C109.458 33.3542 110.14 33.2045 110.909 33.2045C111.689 33.2045 112.375 33.3504 112.966 33.642C113.557 33.9337 114.015 34.3333 114.341 34.8409C114.67 35.3485 114.835 35.928 114.835 36.5795C114.835 37.0152 114.752 37.4432 114.585 37.8636C114.419 38.2841 114.125 38.75 113.705 39.2614C113.288 39.7727 112.703 40.392 111.949 41.1193L109.943 43.1591V43.2386H115.011V45H107.034Z" fill="white"/>
<circle cx="198" cy="40" r="14" fill="#BEB8DC"/>
<path d="M198.21 45.1591C197.392 45.1591 196.665 45.0189 196.028 44.7386C195.396 44.4583 194.896 44.0682 194.528 43.5682C194.161 43.0682 193.966 42.4905 193.943 41.8352H196.08C196.098 42.1496 196.203 42.4242 196.392 42.6591C196.581 42.8902 196.833 43.0701 197.148 43.1989C197.462 43.3277 197.814 43.392 198.205 43.392C198.621 43.392 198.991 43.3201 199.312 43.1761C199.634 43.0284 199.886 42.8239 200.068 42.5625C200.25 42.3011 200.339 42 200.335 41.6591C200.339 41.3068 200.248 40.9962 200.062 40.7273C199.877 40.4583 199.608 40.2481 199.256 40.0966C198.907 39.9451 198.487 39.8693 197.994 39.8693H196.966V38.2443H197.994C198.4 38.2443 198.754 38.1742 199.057 38.0341C199.364 37.8939 199.604 37.697 199.778 37.4432C199.953 37.1856 200.038 36.8883 200.034 36.5511C200.038 36.2216 199.964 35.9356 199.812 35.6932C199.665 35.447 199.455 35.2557 199.182 35.1193C198.913 34.983 198.597 34.9148 198.233 34.9148C197.877 34.9148 197.547 34.9792 197.244 35.108C196.941 35.2367 196.697 35.4205 196.511 35.6591C196.326 35.8939 196.227 36.1742 196.216 36.5H194.188C194.203 35.8485 194.39 35.2765 194.75 34.7841C195.114 34.2879 195.598 33.9015 196.205 33.625C196.811 33.3447 197.491 33.2045 198.244 33.2045C199.021 33.2045 199.695 33.3504 200.267 33.642C200.843 33.9299 201.288 34.3182 201.602 34.8068C201.917 35.2955 202.074 35.8352 202.074 36.4261C202.078 37.0814 201.884 37.6307 201.494 38.0739C201.108 38.517 200.6 38.8068 199.972 38.9432V39.0341C200.79 39.1477 201.417 39.4508 201.852 39.9432C202.292 40.4318 202.509 41.0398 202.506 41.767C202.506 42.4186 202.32 43.0019 201.949 43.517C201.581 44.0284 201.074 44.4299 200.426 44.7216C199.782 45.0133 199.044 45.1591 198.21 45.1591Z" fill="white"/>
<circle cx="285" cy="39" r="14" fill="#BEB8DC"/>
<path d="M279.824 42.8409V41.1648L284.761 33.3636H286.159V35.75H285.307L281.983 41.017V41.108H288.875V42.8409H279.824ZM285.375 45V42.3295L285.398 41.5795V33.3636H287.386V45H285.375Z" fill="white"/>
<circle cx="372" cy="40" r="14" fill="#BEB8DC"/>
<path d="M372.08 46.1591C371.322 46.1591 370.644 46.017 370.045 45.733C369.447 45.4451 368.972 45.0511 368.619 44.5511C368.271 44.0511 368.085 43.4792 368.062 42.8352H370.108C370.146 43.3125 370.352 43.7027 370.727 44.0057C371.102 44.3049 371.553 44.4545 372.08 44.4545C372.492 44.4545 372.86 44.3598 373.182 44.1705C373.504 43.9811 373.758 43.7178 373.943 43.3807C374.129 43.0436 374.22 42.6591 374.216 42.2273C374.22 41.7879 374.127 41.3977 373.938 41.0568C373.748 40.7159 373.489 40.4489 373.159 40.2557C372.83 40.0587 372.451 39.9602 372.023 39.9602C371.674 39.9564 371.331 40.0208 370.994 40.1534C370.657 40.286 370.39 40.4602 370.193 40.6761L368.29 40.3636L368.898 34.3636H375.648V36.125H370.642L370.307 39.2102H370.375C370.591 38.9564 370.896 38.7462 371.29 38.5795C371.684 38.4091 372.116 38.3239 372.585 38.3239C373.29 38.3239 373.919 38.4905 374.472 38.8239C375.025 39.1534 375.46 39.608 375.778 40.1875C376.097 40.767 376.256 41.4299 376.256 42.1761C376.256 42.9451 376.078 43.6307 375.722 44.233C375.369 44.8314 374.879 45.303 374.25 45.6477C373.625 45.9886 372.902 46.1591 372.08 46.1591Z" fill="white"/>
<path d="M25.767 33.3636V45H23.6591V35.4148H23.5909L20.8693 37.1534V35.2216L23.7614 33.3636H25.767Z" fill="white"/>
</svg>
