<svg width="303" height="328" viewBox="0 0 303 328" fill="none" xmlns="http://www.w3.org/2000/svg">
<g filter="url(#filter0_d_88_35)">
<circle cx="184.5" cy="110.5" r="91.5" fill="#373D71"/>
</g>
<path d="M168.512 73C168.08 73 167.648 73.3456 167.389 73.7776L159.267 89.4169C159.094 89.8489 158.662 90.1946 158.144 90.1946H145.961C138.789 90.1946 133 95.9837 133 103.155V141.26C133 141.692 133.346 142.037 133.778 142.037H201.26C201.692 142.037 202.037 141.692 202.037 141.26V91.0586C202.037 90.5402 201.692 90.281 201.26 90.281H194.261C193.829 90.281 193.397 89.9353 193.138 89.5033L185.016 73.864C184.756 73.432 184.411 73.0864 183.892 73.0864H168.253L168.512 73ZM146.134 98.9214C148.553 98.9214 150.454 100.822 150.454 103.242C150.454 105.661 148.553 107.562 146.134 107.562C143.714 107.562 141.813 105.661 141.813 103.242C141.813 100.822 143.714 98.9214 146.134 98.9214ZM176.375 98.9214C185.88 98.9214 193.656 106.698 193.656 116.202C193.656 125.707 185.88 133.483 176.375 133.483C166.871 133.483 159.094 125.707 159.094 116.202C159.094 106.698 166.871 98.9214 176.375 98.9214ZM176.375 107.562C171.623 107.562 167.735 111.45 167.735 116.202C167.735 120.955 171.623 124.843 176.375 124.843C181.127 124.843 185.016 120.955 185.016 116.202C185.016 111.45 181.127 107.562 176.375 107.562Z" fill="white"/>
<rect x="204" y="127" width="31" height="15" fill="white"/>
<rect x="209" y="133" width="2" height="15" fill="#373D71"/>
<rect x="217" y="133" width="2" height="15" fill="#373D71"/>
<rect x="225" y="133" width="2" height="15" fill="#373D71"/>
<path d="M125.773 234.903L136.641 220.535C139.963 216.144 146.215 215.277 150.606 218.599C154.997 221.921 155.864 228.173 152.542 232.564L141.674 246.931C138.352 251.322 132.1 252.189 127.709 248.868C123.318 245.546 122.451 239.294 125.773 234.903Z" fill="white" stroke="black" stroke-width="3"/>
<mask id="path-8-inside-1_88_35" fill="white">
<path d="M111.566 144.223C115.475 139.129 122.773 138.168 127.866 142.077V142.077C132.96 145.986 133.921 153.284 130.013 158.377L96.4613 202.104C95.7888 202.981 94.5334 203.146 93.657 202.474L78.3838 190.754C77.5075 190.082 77.3421 188.827 78.0145 187.95L111.566 144.223Z"/>
</mask>
<path d="M111.566 144.223C115.475 139.129 122.773 138.168 127.866 142.077V142.077C132.96 145.986 133.921 153.284 130.013 158.377L96.4613 202.104C95.7888 202.981 94.5334 203.146 93.657 202.474L78.3838 190.754C77.5075 190.082 77.3421 188.827 78.0145 187.95L111.566 144.223Z" fill="white" stroke="black" stroke-width="6" mask="url(#path-8-inside-1_88_35)"/>
<path d="M106.773 224.903L122.584 204.001C125.906 199.61 132.158 198.743 136.549 202.065C140.94 205.386 141.807 211.638 138.485 216.029L122.674 236.931C119.352 241.322 113.1 242.189 108.709 238.868C104.318 235.546 103.451 229.294 106.773 224.903Z" fill="white" stroke="black" stroke-width="3"/>
<path d="M112.61 214.295L96.7094 202.267L105.584 190.535C108.905 186.144 115.158 185.277 119.549 188.599C123.94 191.92 124.806 198.173 121.485 202.564L112.61 214.295Z" fill="white" stroke="black" stroke-width="3"/>
<path d="M93.4207 287.072L86.5978 295.724C81.981 301.579 73.4924 302.582 67.6379 297.965L38.7073 275.151C32.8529 270.535 31.8495 262.046 36.4662 256.191L43.2892 247.539L93.4207 287.072Z" fill="white" stroke="black" stroke-width="3"/>
<path d="M43.6572 247.484C44.8239 244.651 47.0572 236.784 46.6572 227.984C46.1572 216.984 53.6572 194.484 62.6572 189.984C69.8572 186.384 76.3239 188.484 78.6572 189.984C87.6572 196.317 108.657 210.984 110.157 214.984C111.225 217.832 108.657 228.484 96.1572 227.984C91.5931 227.801 87.3554 224.862 83.1572 223.05M71.6572 216.484C73.9222 218.205 78.1571 220.892 83.1572 223.05M93.6572 286.484C95.4906 284.484 102.457 281.184 111.657 277.984C120.857 274.784 136.324 254.817 141.157 247.484M83.1572 223.05C85.6572 227.861 87.7572 240.084 76.1572 250.484" stroke="black" stroke-width="3"/>
<defs>
<filter id="filter0_d_88_35" x="83" y="14" width="203" height="203" filterUnits="userSpaceOnUse" color-interpolation-filters="sRGB">
<feFlood flood-opacity="0" result="BackgroundImageFix"/>
<feColorMatrix in="SourceAlpha" type="matrix" values="0 0 0 0 0 0 0 0 0 0 0 0 0 0 0 0 0 0 127 0" result="hardAlpha"/>
<feOffset dy="5"/>
<feGaussianBlur stdDeviation="5"/>
<feComposite in2="hardAlpha" operator="out"/>
<feColorMatrix type="matrix" values="0 0 0 0 0 0 0 0 0 0 0 0 0 0 0 0 0 0 0.2 0"/>
<feBlend mode="normal" in2="BackgroundImageFix" result="effect1_dropShadow_88_35"/>
<feBlend mode="normal" in="SourceGraphic" in2="effect1_dropShadow_88_35" result="shape"/>
</filter>
</defs>
</svg>
