<svg width="303" height="328" viewBox="0 0 303 328" fill="none" xmlns="http://www.w3.org/2000/svg">
<g filter="url(#filter0_d_88_15)">
<circle cx="180.5" cy="111.5" r="91.5" fill="#373D71"/>
</g>
<path d="M179.512 78C179.08 78 178.648 78.3456 178.389 78.7776L170.267 94.4169C170.094 94.8489 169.662 95.1946 169.144 95.1946H156.961C149.789 95.1946 144 100.984 144 108.155V146.26C144 146.692 144.346 147.037 144.778 147.037H212.26C212.692 147.037 213.037 146.692 213.037 146.26V96.0586C213.037 95.5402 212.692 95.281 212.26 95.281H205.261C204.829 95.281 204.397 94.9353 204.138 94.5033L196.016 78.864C195.756 78.432 195.411 78.0864 194.892 78.0864H179.253L179.512 78ZM157.134 103.921C159.553 103.921 161.454 105.822 161.454 108.242C161.454 110.661 159.553 112.562 157.134 112.562C154.714 112.562 152.813 110.661 152.813 108.242C152.813 105.822 154.714 103.921 157.134 103.921ZM187.375 103.921C196.88 103.921 204.656 111.698 204.656 121.202C204.656 130.707 196.88 138.483 187.375 138.483C177.871 138.483 170.094 130.707 170.094 121.202C170.094 111.698 177.871 103.921 187.375 103.921ZM187.375 112.562C182.623 112.562 178.735 116.45 178.735 121.202C178.735 125.955 182.623 129.843 187.375 129.843C192.127 129.843 196.016 125.955 196.016 121.202C196.016 116.45 192.127 112.562 187.375 112.562Z" fill="white"/>
<path d="M121.773 235.903L132.641 221.535C135.963 217.144 142.215 216.277 146.606 219.599C150.997 222.921 151.864 229.173 148.542 233.564L137.674 247.931C134.352 252.322 128.1 253.189 123.709 249.868C119.318 246.546 118.451 240.294 121.773 235.903Z" fill="white" stroke="black" stroke-width="3"/>
<mask id="path-4-inside-1_88_15" fill="white">
<path d="M107.566 145.223C111.475 140.129 118.773 139.168 123.866 143.077V143.077C128.96 146.986 129.921 154.284 126.013 159.377L92.4613 203.104C91.7888 203.981 90.5334 204.146 89.657 203.474L74.3838 191.754C73.5075 191.082 73.3421 189.827 74.0145 188.95L107.566 145.223Z"/>
</mask>
<path d="M107.566 145.223C111.475 140.129 118.773 139.168 123.866 143.077V143.077C128.96 146.986 129.921 154.284 126.013 159.377L92.4613 203.104C91.7888 203.981 90.5334 204.146 89.657 203.474L74.3838 191.754C73.5075 191.082 73.3421 189.827 74.0145 188.95L107.566 145.223Z" fill="white" stroke="black" stroke-width="6" mask="url(#path-4-inside-1_88_15)"/>
<path d="M102.773 225.903L118.584 205.001C121.906 200.61 128.158 199.743 132.549 203.065C136.94 206.386 137.807 212.638 134.485 217.029L118.674 237.931C115.352 242.322 109.1 243.189 104.709 239.868C100.318 236.546 99.4514 230.294 102.773 225.903Z" fill="white" stroke="black" stroke-width="3"/>
<path d="M108.61 215.295L92.7094 203.267L101.584 191.535C104.905 187.144 111.158 186.277 115.549 189.599C119.94 192.92 120.806 199.173 117.485 203.564L108.61 215.295Z" fill="white" stroke="black" stroke-width="3"/>
<path d="M89.4207 288.072L82.5978 296.724C77.981 302.579 69.4924 303.582 63.6379 298.965L34.7073 276.151C28.8529 271.535 27.8495 263.046 32.4662 257.191L39.2892 248.539L89.4207 288.072Z" fill="white" stroke="black" stroke-width="3"/>
<path d="M39.6572 248.484C40.8239 245.651 43.0572 237.784 42.6572 228.984C42.1572 217.984 49.6572 195.484 58.6572 190.984C65.8572 187.384 72.3239 189.484 74.6572 190.984C83.6572 197.317 104.657 211.984 106.157 215.984C107.225 218.832 104.657 229.484 92.1572 228.984C87.5931 228.801 83.3554 225.862 79.1572 224.05M67.6572 217.484C69.9222 219.205 74.1571 221.892 79.1572 224.05M89.6572 287.484C91.4906 285.484 98.4572 282.184 107.657 278.984C116.857 275.784 132.324 255.817 137.157 248.484M79.1572 224.05C81.6572 228.861 83.7572 241.084 72.1572 251.484" stroke="black" stroke-width="3"/>
<defs>
<filter id="filter0_d_88_15" x="79" y="15" width="203" height="203" filterUnits="userSpaceOnUse" color-interpolation-filters="sRGB">
<feFlood flood-opacity="0" result="BackgroundImageFix"/>
<feColorMatrix in="SourceAlpha" type="matrix" values="0 0 0 0 0 0 0 0 0 0 0 0 0 0 0 0 0 0 127 0" result="hardAlpha"/>
<feOffset dy="5"/>
<feGaussianBlur stdDeviation="5"/>
<feComposite in2="hardAlpha" operator="out"/>
<feColorMatrix type="matrix" values="0 0 0 0 0 0 0 0 0 0 0 0 0 0 0 0 0 0 0.2 0"/>
<feBlend mode="normal" in2="BackgroundImageFix" result="effect1_dropShadow_88_15"/>
<feBlend mode="normal" in="SourceGraphic" in2="effect1_dropShadow_88_15" result="shape"/>
</filter>
</defs>
</svg>
