<svg width="375" height="27" viewBox="0 0 375 27" fill="none" xmlns="http://www.w3.org/2000/svg">
<rect x="3" y="9" width="371" height="9" rx="4.5" fill="#E6E6E6"/>
<rect x="3" y="9" width="338" height="9" rx="4.5" fill="#3B6A00"/>
<circle cx="13.5" cy="13.5" r="13.5" fill="#A8C880"/>
<path d="M15.7983 6.45455V21H12.2898V9.7358H12.2045L8.9517 11.7244V8.68466L12.5384 6.45455H15.7983Z" fill="white"/>
<circle cx="83" cy="13.5" r="13.5" fill="#A8C880"/>
<path d="M77.5724 20V17.4716L82.8778 12.8267C83.2756 12.4669 83.6141 12.1378 83.8935 11.8395C84.1728 11.5365 84.3859 11.2334 84.5327 10.9304C84.6795 10.6226 84.7528 10.2888 84.7528 9.92898C84.7528 9.52652 84.6652 9.18324 84.4901 8.89915C84.3149 8.61032 84.0734 8.38778 83.7656 8.23153C83.4579 8.07528 83.1051 7.99716 82.7074 7.99716C82.3049 7.99716 81.9522 8.08002 81.6491 8.24574C81.3461 8.40672 81.1094 8.6411 80.9389 8.94886C80.7732 9.25663 80.6903 9.63068 80.6903 10.071H77.3594C77.3594 9.08144 77.5819 8.2268 78.027 7.5071C78.4721 6.78741 79.0971 6.23343 79.902 5.84517C80.7116 5.45218 81.6515 5.25568 82.7216 5.25568C83.8248 5.25568 84.7836 5.44034 85.598 5.80966C86.4124 6.17898 87.0421 6.69508 87.4872 7.35795C87.937 8.0161 88.1619 8.78078 88.1619 9.65199C88.1619 10.206 88.0507 10.7552 87.8281 11.2997C87.6056 11.8442 87.2055 12.4455 86.6278 13.1037C86.0549 13.7618 85.2405 14.5502 84.1847 15.4688L82.4446 17.0739V17.1662H88.3395V20H77.5724Z" fill="white"/>
<circle cx="152.5" cy="13.5" r="13.5" fill="#A8C880"/>
<path d="M152.605 20.1989C151.497 20.1989 150.515 20.0095 149.658 19.6307C148.805 19.2472 148.133 18.7192 147.641 18.0469C147.148 17.3745 146.897 16.6004 146.888 15.7244H150.425C150.439 16.0417 150.541 16.3234 150.73 16.5696C150.92 16.8111 151.178 17.0005 151.504 17.1378C151.831 17.2751 152.203 17.3438 152.619 17.3438C153.036 17.3438 153.403 17.2704 153.72 17.1236C154.042 16.9721 154.293 16.7661 154.473 16.5057C154.653 16.2405 154.741 15.9375 154.736 15.5966C154.741 15.2557 154.643 14.9527 154.445 14.6875C154.246 14.4223 153.964 14.2164 153.599 14.0696C153.24 13.9228 152.813 13.8494 152.321 13.8494H150.908V11.3494H152.321C152.752 11.3494 153.131 11.2784 153.457 11.1364C153.789 10.9943 154.047 10.7955 154.232 10.5398C154.416 10.2794 154.506 9.98106 154.501 9.64489C154.506 9.31818 154.428 9.03172 154.267 8.78551C154.111 8.53456 153.891 8.34044 153.607 8.20312C153.327 8.06581 153.003 7.99716 152.634 7.99716C152.245 7.99716 151.893 8.06581 151.575 8.20312C151.263 8.34044 151.014 8.53456 150.83 8.78551C150.645 9.03646 150.548 9.32765 150.538 9.65909H147.179C147.188 8.79261 147.43 8.0303 147.903 7.37216C148.377 6.70928 149.021 6.19081 149.835 5.81676C150.654 5.44271 151.587 5.25568 152.634 5.25568C153.675 5.25568 154.591 5.43797 155.382 5.80256C156.173 6.16714 156.788 6.6643 157.229 7.29403C157.669 7.91903 157.889 8.62689 157.889 9.41761C157.894 10.2367 157.626 10.9115 157.087 11.4418C156.552 11.9721 155.863 12.2988 155.02 12.4219V12.5355C156.147 12.6681 156.997 13.0327 157.57 13.6293C158.147 14.2259 158.434 14.9716 158.429 15.8665C158.429 16.7093 158.18 17.4574 157.683 18.1108C157.191 18.7595 156.504 19.2708 155.624 19.6449C154.748 20.0142 153.741 20.1989 152.605 20.1989Z" fill="white"/>
<circle cx="222" cy="13.5" r="13.5" fill="#A8C880"/>
<path d="M215.395 17.5852V14.8438L221.354 5.45455H223.79V9.17614H222.376L218.889 14.7017V14.8153H227.518V17.5852H215.395ZM222.419 20V16.7472L222.49 15.5469V5.45455H225.778V20H222.419Z" fill="white"/>
<circle cx="291.5" cy="13.5" r="13.5" fill="#A8C880"/>
<path d="M290.641 20.1989C289.58 20.1989 288.638 20.0071 287.814 19.6236C286.99 19.2401 286.339 18.7121 285.861 18.0398C285.387 17.3674 285.141 16.5956 285.122 15.7244H288.531C288.56 16.2595 288.777 16.6903 289.185 17.017C289.592 17.339 290.077 17.5 290.641 17.5C291.081 17.5 291.472 17.4029 291.812 17.2088C292.153 17.0147 292.421 16.7424 292.615 16.392C292.809 16.0369 292.904 15.6297 292.899 15.1705C292.904 14.7017 292.807 14.2921 292.608 13.9418C292.414 13.5914 292.144 13.3191 291.798 13.125C291.457 12.9261 291.064 12.8267 290.619 12.8267C290.198 12.822 289.798 12.9143 289.419 13.1037C289.045 13.2931 288.761 13.5511 288.567 13.8778L285.463 13.2955L286.095 5.45455H295.428V8.28835H288.986L288.652 11.7188H288.737C288.979 11.3163 289.367 10.9848 289.902 10.7244C290.442 10.4593 291.055 10.3267 291.741 10.3267C292.613 10.3267 293.389 10.5303 294.071 10.9375C294.758 11.34 295.297 11.8987 295.69 12.6136C296.088 13.3286 296.287 14.1477 296.287 15.071C296.287 16.0701 296.05 16.9555 295.577 17.7273C295.108 18.4991 294.45 19.1051 293.602 19.5455C292.759 19.9811 291.772 20.1989 290.641 20.1989Z" fill="white"/>
<circle cx="361" cy="13.5" r="13.5" fill="#D9D9D9"/>
<path d="M361.403 20.1989C360.608 20.1989 359.846 20.071 359.116 19.8153C358.387 19.5549 357.739 19.143 357.17 18.5795C356.602 18.0114 356.155 17.268 355.828 16.3494C355.501 15.4261 355.34 14.3016 355.345 12.9759C355.35 11.7779 355.497 10.7031 355.786 9.75142C356.074 8.79498 356.486 7.98295 357.021 7.31534C357.561 6.64773 358.205 6.13873 358.953 5.78835C359.706 5.43324 360.546 5.25568 361.474 5.25568C362.492 5.25568 363.39 5.45455 364.166 5.85227C364.947 6.24527 365.572 6.77557 366.041 7.44318C366.51 8.10606 366.787 8.8447 366.872 9.65909H363.413C363.309 9.19981 363.08 8.8518 362.724 8.61506C362.374 8.37358 361.957 8.25284 361.474 8.25284C360.584 8.25284 359.919 8.63873 359.479 9.41051C359.043 10.1823 358.821 11.2145 358.811 12.5071H358.903C359.102 12.0715 359.389 11.6974 359.763 11.3849C360.137 11.0724 360.565 10.8333 361.048 10.6676C361.536 10.4972 362.052 10.4119 362.597 10.4119C363.468 10.4119 364.237 10.6132 364.905 11.0156C365.572 11.4181 366.096 11.9697 366.474 12.6705C366.853 13.3665 367.04 14.1643 367.036 15.0639C367.04 16.0772 366.804 16.9721 366.325 17.7486C365.847 18.5204 365.184 19.1217 364.337 19.5526C363.494 19.9834 362.516 20.1989 361.403 20.1989ZM361.382 17.5C361.813 17.5 362.199 17.3982 362.54 17.1946C362.881 16.991 363.148 16.714 363.342 16.3636C363.536 16.0133 363.631 15.6179 363.626 15.1776C363.631 14.7325 363.536 14.3371 363.342 13.9915C363.153 13.6458 362.888 13.3712 362.547 13.1676C362.211 12.964 361.825 12.8622 361.389 12.8622C361.072 12.8622 360.776 12.9214 360.501 13.0398C360.227 13.1581 359.988 13.3239 359.784 13.5369C359.585 13.7453 359.429 13.9915 359.315 14.2756C359.202 14.5549 359.143 14.858 359.138 15.1847C359.143 15.6155 359.242 16.0062 359.436 16.3565C359.63 16.7069 359.895 16.9863 360.232 17.1946C360.568 17.3982 360.951 17.5 361.382 17.5Z" fill="white"/>
</svg>
