<svg width="217" height="58" viewBox="0 0 217 58" fill="none" xmlns="http://www.w3.org/2000/svg">
<rect width="217" height="58" rx="7" fill="#3B6A00"/>
<path d="M52.64 35.32C51.8467 35.32 51.1267 35.22 50.48 35.02C49.8333 34.82 49.2633 34.5733 48.77 34.28C48.2833 33.98 47.8733 33.68 47.54 33.38C47.2067 33.08 46.9533 32.8333 46.78 32.64L48.16 30.52C48.3467 30.7133 48.58 30.9433 48.86 31.21C49.1467 31.4767 49.48 31.74 49.86 32C50.24 32.2533 50.6667 32.4667 51.14 32.64C51.6133 32.8067 52.1367 32.89 52.71 32.89C53.25 32.89 53.7333 32.8 54.16 32.62C54.5867 32.44 54.9267 32.1733 55.18 31.82C55.4333 31.46 55.56 31.0167 55.56 30.49C55.56 30.03 55.4633 29.6367 55.27 29.31C55.0833 28.9833 54.8133 28.7 54.46 28.46C54.1067 28.2133 53.6867 27.98 53.2 27.76C52.7133 27.5333 52.17 27.3 51.57 27.06C51.1433 26.88 50.72 26.67 50.3 26.43C49.8867 26.19 49.51 25.9033 49.17 25.57C48.8367 25.2367 48.57 24.8533 48.37 24.42C48.17 23.98 48.07 23.4733 48.07 22.9C48.07 22.28 48.19 21.69 48.43 21.13C48.6767 20.5633 49.0233 20.06 49.47 19.62C49.9167 19.18 50.4467 18.8333 51.06 18.58C51.68 18.3267 52.37 18.2 53.13 18.2C53.75 18.2 54.3533 18.29 54.94 18.47C55.5267 18.65 56.06 18.8833 56.54 19.17C57.0267 19.4567 57.4233 19.7633 57.73 20.09L56.59 22.08C56.3367 21.82 56.0333 21.5767 55.68 21.35C55.3333 21.1167 54.9467 20.93 54.52 20.79C54.0933 20.65 53.6467 20.58 53.18 20.58C52.6333 20.58 52.17 20.6867 51.79 20.9C51.41 21.1133 51.1167 21.3933 50.91 21.74C50.71 22.08 50.61 22.45 50.61 22.85C50.61 23.1967 50.68 23.4933 50.82 23.74C50.9667 23.98 51.1667 24.1867 51.42 24.36C51.6733 24.5333 51.9633 24.6933 52.29 24.84C52.6233 24.98 52.9733 25.12 53.34 25.26C54.0667 25.5533 54.7367 25.8533 55.35 26.16C55.97 26.46 56.5067 26.8033 56.96 27.19C57.4133 27.57 57.7633 28.0233 58.01 28.55C58.2633 29.07 58.39 29.6967 58.39 30.43C58.39 31.4567 58.1433 32.3367 57.65 33.07C57.1633 33.8033 56.4867 34.3633 55.62 34.75C54.76 35.13 53.7667 35.32 52.64 35.32ZM64.7623 35.32C63.8357 35.32 63.1123 35.02 62.5923 34.42C62.079 33.82 61.8223 32.9767 61.8223 31.89V26.65H60.5723V24.76H61.8223V20.93H64.3123V24.76H66.6723V26.65H64.3123V31.72C64.3123 32.1667 64.4023 32.51 64.5823 32.75C64.7623 32.9833 65.019 33.1 65.3523 33.1C65.699 33.1 66.0157 32.9933 66.3023 32.78L66.9323 34.77C66.6323 34.9433 66.289 35.0767 65.9023 35.17C65.5157 35.27 65.1357 35.32 64.7623 35.32ZM74.0564 35.32C73.1097 35.32 72.2497 35.0867 71.4764 34.62C70.7097 34.1467 70.0997 33.5 69.6464 32.68C69.1997 31.86 68.9764 30.9233 68.9764 29.87C68.9764 28.83 69.1931 27.9033 69.6264 27.09C70.0664 26.27 70.6697 25.6233 71.4364 25.15C72.2031 24.6767 73.0764 24.44 74.0564 24.44C74.8564 24.44 75.5931 24.6067 76.2664 24.94C76.9397 25.2733 77.4731 25.7367 77.8664 26.33V24.76H80.3564V35H77.8664V33.36C77.4131 33.98 76.8564 34.4633 76.1964 34.81C75.5431 35.15 74.8297 35.32 74.0564 35.32ZM74.7664 33.19C75.3864 33.19 75.9331 33.05 76.4064 32.77C76.8797 32.4833 77.2531 32.09 77.5264 31.59C77.7997 31.09 77.9364 30.52 77.9364 29.88C77.9364 29.2333 77.7997 28.6633 77.5264 28.17C77.2531 27.67 76.8797 27.28 76.4064 27C75.9331 26.7133 75.3864 26.57 74.7664 26.57C74.1531 26.57 73.6064 26.7133 73.1264 27C72.6464 27.28 72.2697 27.67 71.9964 28.17C71.7231 28.67 71.5864 29.24 71.5864 29.88C71.5864 30.52 71.7231 31.09 71.9964 31.59C72.2697 32.09 72.6464 32.4833 73.1264 32.77C73.6064 33.05 74.1531 33.19 74.7664 33.19ZM84.2191 35V24.76H86.7091V26.25C87.0691 25.6633 87.5191 25.2167 88.0591 24.91C88.5991 24.5967 89.1924 24.44 89.8391 24.44C90.1791 24.44 90.5257 24.4867 90.8791 24.58C91.2391 24.6667 91.5457 24.7833 91.7991 24.93L90.7691 27.04C90.5491 26.9067 90.2924 26.8 89.9991 26.72C89.7124 26.64 89.4457 26.6 89.1991 26.6C88.7724 26.6 88.3691 26.71 87.9891 26.93C87.6091 27.15 87.2991 27.4333 87.0591 27.78C86.8257 28.1267 86.7091 28.5 86.7091 28.9V35H84.2191ZM97.0475 35.32C96.1208 35.32 95.3975 35.02 94.8775 34.42C94.3642 33.82 94.1075 32.9767 94.1075 31.89V26.65H92.8575V24.76H94.1075V20.93H96.5975V24.76H98.9575V26.65H96.5975V31.72C96.5975 32.1667 96.6875 32.51 96.8675 32.75C97.0475 32.9833 97.3042 33.1 97.6375 33.1C97.9842 33.1 98.3008 32.9933 98.5875 32.78L99.2175 34.77C98.9175 34.9433 98.5742 35.0767 98.1875 35.17C97.8008 35.27 97.4208 35.32 97.0475 35.32ZM122.694 35.54C122.167 35.3333 121.634 35.0933 121.094 34.82C120.56 34.54 120.024 34.23 119.484 33.89C118.11 34.8433 116.557 35.32 114.824 35.32C113.657 35.32 112.57 35.1033 111.564 34.67C110.557 34.2367 109.674 33.6333 108.914 32.86C108.16 32.08 107.574 31.1733 107.154 30.14C106.734 29.1067 106.524 27.99 106.524 26.79C106.524 25.5967 106.737 24.48 107.164 23.44C107.59 22.4 108.184 21.49 108.944 20.71C109.704 19.9233 110.587 19.31 111.594 18.87C112.6 18.4233 113.684 18.2 114.844 18.2C115.997 18.2 117.077 18.42 118.084 18.86C119.09 19.3 119.974 19.9133 120.734 20.7C121.494 21.48 122.087 22.39 122.514 23.43C122.947 24.4633 123.164 25.5767 123.164 26.77C123.164 27.77 122.994 28.73 122.654 29.65C122.32 30.5633 121.844 31.3767 121.224 32.09C121.677 32.3233 122.124 32.5333 122.564 32.72C123.004 32.9067 123.434 33.0667 123.854 33.2L122.694 35.54ZM114.814 32.8C115.26 32.8 115.687 32.7433 116.094 32.63C116.5 32.51 116.874 32.34 117.214 32.12C116.747 31.74 116.297 31.34 115.864 30.92C115.437 30.5 115.04 30.0667 114.674 29.62L115.804 28.24C116.717 29.1933 117.724 30.04 118.824 30.78C119.31 30.26 119.684 29.6533 119.944 28.96C120.204 28.2667 120.334 27.5367 120.334 26.77C120.334 25.8967 120.197 25.0933 119.924 24.36C119.65 23.6267 119.267 22.99 118.774 22.45C118.28 21.9033 117.697 21.48 117.024 21.18C116.357 20.8733 115.63 20.72 114.844 20.72C114.05 20.72 113.317 20.8733 112.644 21.18C111.977 21.48 111.397 21.9033 110.904 22.45C110.41 22.99 110.024 23.63 109.744 24.37C109.47 25.11 109.334 25.9167 109.334 26.79C109.334 27.6633 109.467 28.4667 109.734 29.2C110.007 29.9333 110.39 30.57 110.884 31.11C111.377 31.6433 111.957 32.06 112.624 32.36C113.29 32.6533 114.02 32.8 114.814 32.8ZM131.468 35.32C129.708 35.32 128.445 34.96 127.678 34.24C126.911 33.5133 126.528 32.3167 126.528 30.65V24.76H129.018V30.09C129.018 31.2433 129.201 32.0633 129.568 32.55C129.941 33.0367 130.575 33.28 131.468 33.28C132.361 33.28 132.991 33.0367 133.358 32.55C133.731 32.0633 133.918 31.2433 133.918 30.09V24.76H136.408V30.65C136.408 32.3167 136.025 33.5133 135.258 34.24C134.491 34.96 133.228 35.32 131.468 35.32ZM144.919 35.32C143.826 35.32 142.846 35.0833 141.979 34.61C141.119 34.1367 140.436 33.49 139.929 32.67C139.429 31.85 139.179 30.9267 139.179 29.9C139.179 29.14 139.323 28.43 139.609 27.77C139.896 27.11 140.293 26.53 140.799 26.03C141.306 25.53 141.896 25.14 142.569 24.86C143.243 24.58 143.969 24.44 144.749 24.44C145.816 24.44 146.749 24.66 147.549 25.1C148.356 25.54 148.983 26.1533 149.429 26.94C149.883 27.7267 150.109 28.6433 150.109 29.69C150.109 29.7767 150.106 29.85 150.099 29.91C150.093 29.9633 150.079 30.0567 150.059 30.19H141.719C141.719 30.81 141.859 31.3567 142.139 31.83C142.419 32.2967 142.809 32.6633 143.309 32.93C143.816 33.19 144.396 33.32 145.049 33.32C145.669 33.32 146.219 33.1967 146.699 32.95C147.186 32.6967 147.626 32.3133 148.019 31.8L149.829 32.73C149.343 33.5433 148.666 34.18 147.799 34.64C146.939 35.0933 145.979 35.32 144.919 35.32ZM141.829 28.63H147.639C147.553 28.1633 147.376 27.76 147.109 27.42C146.843 27.08 146.506 26.8167 146.099 26.63C145.693 26.4367 145.239 26.34 144.739 26.34C144.213 26.34 143.743 26.4333 143.329 26.62C142.916 26.8067 142.579 27.07 142.319 27.41C142.059 27.75 141.896 28.1567 141.829 28.63ZM155.867 35.32C155.007 35.32 154.241 35.16 153.567 34.84C152.901 34.5133 152.357 34.0467 151.937 33.44L153.037 31.82C153.431 32.34 153.867 32.7433 154.347 33.03C154.834 33.3167 155.337 33.46 155.857 33.46C156.177 33.46 156.461 33.4033 156.707 33.29C156.954 33.17 157.151 33 157.297 32.78C157.444 32.5533 157.517 32.2867 157.517 31.98C157.517 31.66 157.434 31.41 157.267 31.23C157.101 31.05 156.851 30.8867 156.517 30.74C156.184 30.5933 155.764 30.42 155.257 30.22C154.831 30.04 154.424 29.84 154.037 29.62C153.651 29.4 153.331 29.1233 153.077 28.79C152.831 28.45 152.707 28.02 152.707 27.5C152.707 26.9067 152.871 26.38 153.197 25.92C153.531 25.46 153.984 25.1 154.557 24.84C155.137 24.58 155.797 24.45 156.537 24.45C157.071 24.45 157.607 24.5467 158.147 24.74C158.687 24.9267 159.227 25.2 159.767 25.56L158.867 27.13C158.087 26.4833 157.317 26.16 156.557 26.16C156.111 26.16 155.751 26.2667 155.477 26.48C155.211 26.6933 155.077 26.9667 155.077 27.3C155.077 27.5733 155.194 27.8067 155.427 28C155.661 28.1933 155.951 28.3633 156.297 28.51C156.644 28.6567 156.991 28.7967 157.337 28.93C157.884 29.13 158.364 29.3433 158.777 29.57C159.191 29.7967 159.514 30.09 159.747 30.45C159.981 30.81 160.097 31.29 160.097 31.89C160.097 32.61 159.924 33.2267 159.577 33.74C159.237 34.2533 158.751 34.6467 158.117 34.92C157.484 35.1867 156.734 35.32 155.867 35.32ZM166.169 35.32C165.242 35.32 164.519 35.02 163.999 34.42C163.485 33.82 163.229 32.9767 163.229 31.89V26.65H161.979V24.76H163.229V20.93H165.719V24.76H168.079V26.65H165.719V31.72C165.719 32.1667 165.809 32.51 165.989 32.75C166.169 32.9833 166.425 33.1 166.759 33.1C167.105 33.1 167.422 32.9933 167.709 32.78L168.339 34.77C168.039 34.9433 167.695 35.0767 167.309 35.17C166.922 35.27 166.542 35.32 166.169 35.32Z" fill="white"/>
</svg>
